REM DIRINDEX 1\2,1\3,1\4
REM DIRNAME cjc151,folder01,folder02,folder03
TITLE ""
FILE "037 037_TOEFL_3900.mp3" MP3
  TRACK 01 AUDIO
    TITLE "2:cjc151_1594"
    INDEX 01 00:00:00
  TRACK 02 AUDIO
    TITLE "0:"
    INDEX 01 00:01:22
  TRACK 03 AUDIO
    TITLE "3:cjc151_1595"
    INDEX 01 00:03:02
  TRACK 04 AUDIO
    TITLE "0:"
    INDEX 01 00:07:00
  TRACK 05 AUDIO
    TITLE "2:cjc151_1596"
    INDEX 01 00:08:54
  TRACK 06 AUDIO
    TITLE "0:"
    INDEX 01 00:09:59
  TRACK 07 AUDIO
    TITLE "3:cjc151_1597"
    INDEX 01 00:11:37
  TRACK 08 AUDIO
    TITLE "0:"
    INDEX 01 00:16:04
  TRACK 09 AUDIO
    TITLE "2:cjc151_1598"
    INDEX 01 00:17:57
  TRACK 10 AUDIO
    TITLE "0:"
    INDEX 01 00:18:58
  TRACK 11 AUDIO
    TITLE "3:cjc151_1599"
    INDEX 01 00:20:37
  TRACK 12 AUDIO
    TITLE "0:"
    INDEX 01 00:24:24
  TRACK 13 AUDIO
    TITLE "2:cjc151_1600"
    INDEX 01 00:26:03
  TRACK 14 AUDIO
    TITLE "0:"
    INDEX 01 00:27:16
  TRACK 15 AUDIO
    TITLE "3:cjc151_1601"
    INDEX 01 00:28:66
  TRACK 16 AUDIO
    TITLE "0:"
    INDEX 01 00:33:30
  TRACK 17 AUDIO
    TITLE "2:cjc151_1602"
    INDEX 01 00:35:10
  TRACK 18 AUDIO
    TITLE "0:"
    INDEX 01 00:36:11
  TRACK 19 AUDIO
    TITLE "3:cjc151_1603"
    INDEX 01 00:37:63
  TRACK 20 AUDIO
    TITLE "0:"
    INDEX 01 00:41:30
  TRACK 21 AUDIO
    TITLE "2:cjc151_1604"
    INDEX 01 00:43:09
  TRACK 22 AUDIO
    TITLE "0:"
    INDEX 01 00:44:11
  TRACK 23 AUDIO
    TITLE "3:cjc151_1605"
    INDEX 01 00:45:65
  TRACK 24 AUDIO
    TITLE "0:"
    INDEX 01 00:49:27
  TRACK 25 AUDIO
    TITLE "2:cjc151_1606"
    INDEX 01 00:51:07
  TRACK 26 AUDIO
    TITLE "0:"
    INDEX 01 00:52:08
  TRACK 27 AUDIO
    TITLE "3:cjc151_1607"
    INDEX 01 00:53:62
  TRACK 28 AUDIO
    TITLE "0:"
    INDEX 01 00:57:39
  TRACK 29 AUDIO
    TITLE "2:cjc151_1608"
    INDEX 01 00:59:20
  TRACK 30 AUDIO
    TITLE "0:"
    INDEX 01 01:00:29
  TRACK 31 AUDIO
    TITLE "3:cjc151_1609"
    INDEX 01 01:02:05
  TRACK 32 AUDIO
    TITLE "0:"
    INDEX 01 01:06:18
  TRACK 33 AUDIO
    TITLE "2:cjc151_1610"
    INDEX 01 01:08:05
  TRACK 34 AUDIO
    TITLE "0:"
    INDEX 01 01:09:01
  TRACK 35 AUDIO
    TITLE "3:cjc151_1611"
    INDEX 01 01:10:55
  TRACK 36 AUDIO
    TITLE "0:"
    INDEX 01 01:14:57
  TRACK 37 AUDIO
    TITLE "2:cjc151_1612"
    INDEX 01 01:16:38
  TRACK 38 AUDIO
    TITLE "0:"
    INDEX 01 01:17:47
  TRACK 39 AUDIO
    TITLE "3:cjc151_1613"
    INDEX 01 01:19:27
  TRACK 40 AUDIO
    TITLE "0:"
    INDEX 01 01:23:15
  TRACK 41 AUDIO
    TITLE "2:cjc151_1614"
    INDEX 01 01:24:67
  TRACK 42 AUDIO
    TITLE "0:"
    INDEX 01 01:25:72
  TRACK 43 AUDIO
    TITLE "3:cjc151_1615"
    INDEX 01 01:27:51
  TRACK 44 AUDIO
    TITLE "0:"
    INDEX 01 01:30:60
  TRACK 45 AUDIO
    TITLE "2:cjc151_1616"
    INDEX 01 01:32:33
  TRACK 46 AUDIO
    TITLE "0:"
    INDEX 01 01:33:48
  TRACK 47 AUDIO
    TITLE "3:cjc151_1617"
    INDEX 01 01:35:22
  TRACK 48 AUDIO
    TITLE "0:"
    INDEX 01 01:40:01
  TRACK 49 AUDIO
    TITLE "2:cjc151_1618"
    INDEX 01 01:41:56
  TRACK 50 AUDIO
    TITLE "0:"
    INDEX 01 01:42:55
  TRACK 51 AUDIO
    TITLE "3:cjc151_1619"
    INDEX 01 01:44:28
  TRACK 52 AUDIO
    TITLE "0:"
    INDEX 01 01:47:66
  TRACK 53 AUDIO
    TITLE "2:cjc151_1620"
    INDEX 01 01:49:55
  TRACK 54 AUDIO
    TITLE "0:"
    INDEX 01 01:50:62
  TRACK 55 AUDIO
    TITLE "3:cjc151_1621"
    INDEX 01 01:52:38
  TRACK 56 AUDIO
    TITLE "0:"
    INDEX 01 01:56:49
  TRACK 57 AUDIO
    TITLE "2:cjc151_1622"
    INDEX 01 01:58:29
  TRACK 58 AUDIO
    TITLE "0:"
    INDEX 01 01:59:36
  TRACK 59 AUDIO
    TITLE "3:cjc151_1623"
    INDEX 01 02:01:15
  TRACK 60 AUDIO
    TITLE "0:"
    INDEX 01 02:05:01
  TRACK 61 AUDIO
    TITLE "2:cjc151_1624"
    INDEX 01 02:06:54
  TRACK 62 AUDIO
    TITLE "0:"
    INDEX 01 02:07:67
  TRACK 63 AUDIO
    TITLE "3:cjc151_1625"
    INDEX 01 02:09:44
  TRACK 64 AUDIO
    TITLE "0:"
    INDEX 01 02:13:46
  TRACK 65 AUDIO
    TITLE "2:cjc151_1626"
    INDEX 01 02:15:25
  TRACK 66 AUDIO
    TITLE "0:"
    INDEX 01 02:16:26
  TRACK 67 AUDIO
    TITLE "3:cjc151_1627"
    INDEX 01 02:18:04
  TRACK 68 AUDIO
    TITLE "0:"
    INDEX 01 02:22:09
  TRACK 69 AUDIO
    TITLE "2:cjc151_1628"
    INDEX 01 02:23:64
  TRACK 70 AUDIO
    TITLE "0:"
    INDEX 01 02:24:65
  TRACK 71 AUDIO
    TITLE "3:cjc151_1629"
    INDEX 01 02:26:42
  TRACK 72 AUDIO
    TITLE "0:"
    INDEX 01 02:30:05
  TRACK 73 AUDIO
    TITLE "2:cjc151_1630"
    INDEX 01 02:31:59
  TRACK 74 AUDIO
    TITLE "0:"
    INDEX 01 02:33:01
  TRACK 75 AUDIO
    TITLE "3:cjc151_1631"
    INDEX 01 02:34:54
  TRACK 76 AUDIO
    TITLE "0:"
    INDEX 01 02:38:30
  TRACK 77 AUDIO
    TITLE "2:cjc151_1632"
    INDEX 01 02:40:09
  TRACK 78 AUDIO
    TITLE "0:"
    INDEX 01 02:41:05
  TRACK 79 AUDIO
    TITLE "3:cjc151_1633"
    INDEX 01 02:42:59
  TRACK 80 AUDIO
    TITLE "0:"
    INDEX 01 02:46:04
  TRACK 81 AUDIO
    TITLE "2:cjc151_1634"
    INDEX 01 02:47:58
  TRACK 82 AUDIO
    TITLE "0:"
    INDEX 01 02:48:64
  TRACK 83 AUDIO
    TITLE "3:cjc151_1635"
    INDEX 01 02:50:41
  TRACK 84 AUDIO
    TITLE "0:"
    INDEX 01 02:54:37
  TRACK 85 AUDIO
    TITLE "2:cjc151_1636"
    INDEX 01 02:56:14
  TRACK 86 AUDIO
    TITLE "0:"
    INDEX 01 02:57:20
  TRACK 87 AUDIO
    TITLE "3:cjc151_1637"
    INDEX 01 02:58:72
  TRACK 88 AUDIO
    TITLE "0:"
    INDEX 01 03:03:03
